<?xml version="1.0" encoding="UTF-8" standalone="no"?>
<svg xmlns="http://www.w3.org/2000/svg" version="1.0" width="152.000000pt" height="152.000000pt" viewBox="0 0 152.000000 152.000000" preserveAspectRatio="xMidYMid meet">
  <g transform="translate(0.000000,152.000000) scale(0.100000,-0.100000)" fill="#000000" stroke="none">
    <path d="M450 1403 c-29 -11 -50 -36 -56 -69 -5 -29 -9 -32 -24 -24 -10 6 -34 10 -53 10 -87 0 -105 -113 -27 -178 14 -12 92 -50 133 -65 17 -6 12 -14 -31 -62 -61 -66 -103 -138 -132 -225 -20 -57 -22 -78 -16 -168 4 -66 2 -118 -6 -147 -9 -32 -9 -50 -1 -68 9 -19 8 -28 -4 -40 -14 -14 -9 -25 52 -114 37 -54 70 -100 72 -103 2 -2 12 1 22 7 12 7 23 8 35 1 33 -19 151 -48 171 -43 11 3 28 11 38 19 17 13 14 20 -51 108 -38 51 -101 147 -140 213 -39 66 -81 136 -93 155 -44 70 -22 176 65 309 52 79 75 102 141 135 68 33 125 46 215 46 180 0 286 -59 372 -206 19 -32 42 -79 52 -104 22 -55 25 -144 4 -168 -8 -9 -38 -60 -68 -112 -58 -104 -130 -214 -197 -302 -24 -31 -43 -59 -43 -62 0 -3 14 -13 32 -22 29 -15 36 -15 97 1 36 10 77 24 91 31 18 8 31 9 44 2 9 -5 19 -8 20 -6 38 48 136 196 136 204 0 7 -7 14 -15 18 -12 4 -13 10 -3 31 9 20 9 36 0 70 -8 29 -10 81 -6 147 6 90 4 111 -16 168 -29 87 -71 159 -132 225 -43 48 -48 56 -31 62 124 45 183 97 183 163 0 30 -6 43 -26 59 -29 23 -74 27 -105 11 -15 -8 -19 -7 -19 4 0 47 -51 96 -100 96 -32 0 -77 -51 -86 -95 -4 -21 -2 -67 5 -103 7 -35 10 -66 8 -68 -2 -3 -30 2 -63 11 -75 19 -193 19 -268 0 -33 -9 -61 -14 -63 -11 -2 2 1 33 8 68 15 82 6 133 -31 170 -27 27 -56 33 -90 21z"></path>
    <path d="M386 628 c-15 -20 -13 -27 30 -107 82 -155 223 -351 253 -351 24 0 43 34 37 68 -8 49 -152 284 -216 353 -60 64 -80 71 -104 37z"></path>
    <path d="M1030 591 c-65 -69 -208 -302 -216 -352 -6 -35 13 -69 37 -69 27 0 147 162 233 315 57 101 66 131 44 153 -22 22 -42 12 -98 -47z"></path>
  </g>
</svg>